<svg xmlns="http://www.w3.org/2000/svg" width="2048" height="2048" viewBox="0 0 2048 2048">
  <path id="slawin" data-name="Sławin" d="M616,149c25.795,0,30.212,8.559,46,13,21.411,6.023,38.691-3.049,59-4l1,1q-3.5,147.484-7,295c3.728,10.794,23.31,20.148,30,33-19.384-3.626-51.733-17.425-74-8-15.991,6.769-55.742,21.634-79,18-16.407-2.563-51.461-.1-71-7l-44-31c-27.542-11.12-49.453,13.293-70,9l-82-56v-1c31.419-31.344,47.013-78.186,80-108,23.227,9.582,53.973,43.325,66,65h2c27.183-34.633-12.367-55.552-19-84-7.413-31.8-1.621-76.864,2-107C512.363,178.363,567.921,164.682,616,149Z"/>
  <path id="slawinek" data-name="Sławinek" d="M661,488c18.655,3.206,74.62-1.943,89,14q0.5,5,1,10l-5,9-34,30-16,43-42,34L516,580l19-76C579.59,504.532,622.7,503.123,661,488Z"/>
  <path id="szerokie" data-name="Szerokie" d="M503,644l-117,4c-5.663-37.11,16.286-62.088,9-92l-2-1c-43.186,5.132-103.26,29.148-149,5-0.7-66.746,12.912-104.807,32-147,54.632-9.577,81.643,54.947,123,67,27.684,8.068,41.005-17.7,69-9,20.6,6.4,29.836,27.174,54,32C513.42,549.931,503.022,582.951,503,644Z"/>
  <path id="weglin_polnocny" data-name="Węglin Północny" d="M365,648l105,2c-16.544,48.1-16.53,69.277,5,113-95.537,52.779-107.739,126.919-279,93-0.32-142.672,94.657-67.434,155-127C372.047,708.225,355.821,676.638,365,648Z"/>
  <path id="konstantynow" data-name="Konstantynów" d="M516,594c47.362,14,109.864,28.924,144,58l-2,3c-36.184,13.077-27.036,24.681-37,60-26.93-.538-31.347,14.243-47,25l6,32v1c-34.227-6.228-31.187,14.717-50,21l-45-2q2.5-17,5-34l-19-27c-11.687-26.737,5.183-58.418,12-75l31-1Q515,624.5,516,594Z"/>
  <path id="wieniawa" data-name="Wieniawa" d="M909,573v33l-13,3q-0.5,12.5-1,25l-54-8-1,1c-0.26,31.938,3.858,58.661,7,84l-1,1c-58.811-26.738-135.709-36.089-182-75v-1l44-35q9-23,18-46c12.48-15.735,35.917-17.515,37-45C805.353,531.568,851.059,572.645,909,573Z"/>
  <path id="czechow_polnocny" data-name="Czechów Północny" d="M1073,352c-50.12-.07-106.021-6.486-147,7-18.064,5.945-32.067,25.3-46,30-8.186,2.764-32.265-13.889-48-14l-1,1-6,35-96-13q4.5-121.488,9-243c61.982,3.14,100.171,17.231,143,39l7-16c43.372-.54,199.67-29.488,214-23C1079.24,174.56,1073.2,304.633,1073,352Z"/>
  <path id="czechow_poludniowy" data-name="Czechów Południowy" d="M1072,365q-1.005,38.5-2,77c-25.77-14.057-73.247-16.059-112-8l-1,1q0.5,50.495,1,101c-18.365,2.525-45.62,5.483-48,24-28.663-.8-134.724-50.2-148-66-15.517-18.469-13.069-32.258-34-46q0.5-17.5,1-35c31.444,1.49,77.685,19.68,107,9l6-32c16.157,3.764,28.131,16.061,44,14C920.182,359.27,994.781,364.211,1072,365Z"/>
  <path id="srodmiescie" data-name="Śródmieście" d="M908,619h11q2.5-29.5,5-59l46-14q-0.5-50-1-100l1-1c45.13-.624,70.12-1.235,100,13-0.04,61.4,29,67.828,23,128-58.71-11.376-80.14-14.278-81,55,11.35,6.809,19.66,15.963,31,24q3,22,6,44h28q-3,17-6,34c-49.59,16.987-89.549-56.413-108,32l-40-17q0.5-6.5,1-13l-65-27q-3.5-39.5-7-79c14.713,5.23,35,8.975,54,6Q907,632,908,619Z"/>
  <path id="rury" data-name="Rury" d="M671,662c72.142,27.786,171.48,51.339,236,92l-4,11,60,25v1c-2.7,4.544-39.941,51.172-43,53-35.477,21.207-59.92-15.811-79,32-11.795,1.288-24.291-.467-33,4q2-13,4-26l-74-25-33,2-44-33-64-9q-4-21-8-42c6.035-3.742,46.7-27.469,48-32V684C642.109,671.538,662.3,671.189,671,662Z"/>
  <path id="czuby_polnocne" data-name="Czuby Północne" d="M486,805l51,2c13.131-4.8,10.758-25.017,32-23,16.2,1.538,10.079,11.668,19,17l65,9,45,32,3,3,34-3,61,19c0.139,28.583-7.037,46.994-8,70-76.423-22.623-154.7-43.616-222-6C542.112,881.474,485.551,871.314,486,805Z"/>
  <path id="weglin_poludniowy" data-name="Węglin Południowy" d="M472,782q0.5,26.5,1,53c9.483,40.966,58.969,64.513,81,97-59.386,24.61-15.684,64.026-48,95q-45,6.495-90,13l-48,9q-24.5,15.495-49,31c-51.031,8.42-141.37-23.03-179-35C155.24,982.752,410.621,831,472,782Z"/>
  <path id="za_cukrownia" data-name="Za Cukrownią" d="M992,744c36.64,6.646,64.6,21.105,98,4,0.67,0.667,1.33,1.333,2,2,2.61,14.855-4.12,15.732-7,26q2.505,19,5,38c-66.53,41.648-175.784,160.389-263,165-13.923-14.7-46.26-71.623-9-89l31-2,14-23c17.522-8.871,46.949,2.408,66-10,1.267-.825,46-55,46-55C984.842,773.117,971.118,758.708,992,744Z"/>
  <path id="stare_miasto" data-name="Stare Miasto" d="M1058,697c-0.02-35.848-11.21-51.947-31-67q5.505-20,11-40l60,12c10.84,46.087,44.5,29.15,83,45,2.48,10.918-3.41,18.451-8,28-43.89.088-57.16,38.943-86,56,2.29-11.1,5.49-25.06,1-34h-30Z"/>
  <path id="kalinowszczyzna" data-name="Kalinowszczyzna" d="M1295,435c37.48-.327,61.72,11.661,68,43-33.55,11.665-38.83,25.31-51,59-0.67.333-1.33,0.667-2,1-8.85-6.5-17.47-16.168-32-11-8,10.467-5.06,21.1-1,34-25.8,7.993-53.67,91.906-87,111,27.06-52.4-42.02-38.492-73-52-8.33-27.943-16.19-76.624-11-109,6.21,3.659,11.26,5.745,19,3,7.03-15.65,10.71-33.931,18-52,3.72,1.707,43.79,10.945,48,11,5.83-10.946,15.37-15.241,26-21q5.505,7.5,11,15C1251.34,470.188,1273.13,442.641,1295,435Z"/>
  <path id="ponikwoda" data-name="Ponikwoda" d="M1542,36h4l3,1Q1572,55,1595,73l64,23,3,2q3.495,12,7,24c8.42,15.132,30.33,29.6,46,38-9.53,25.208-57.13,26.255-78,41-37.58,26.549-66.7,107.517-98,143-19.76,22.4-63.86,21.6-81,47-11.91,17.647-19.26,42.347-20,63-20.84,3.141-31.42,5.978-39,23h-22c-5.35-34.621-44.71-71.275-97-54l-45,29-12-15c-13.21-.284-36.69,9.482-39,18-12.83-6.989-36.07-12.192-53-6q-7.5,25.5-15,51c-14.03-8.836-17.07-5.035-24,8-35.52-43.18,16.42-307.549,13-356,18.41-2.616,24.63,8.939,43,11,40.36,4.528,64.02-28.414,93,3q-1.5,9-3,18c22.01,16,71.08,50.3,104,46,13.6-23.588,39.39-25.231,55-45q12-17,24-34l27-3C1474.12,137.064,1507.47,59.265,1542,36Z"/>
  <path id="tatary" data-name="Tatary" d="M1364,492c8.76,5.144,9.46,18.813,13,29,16.6,47.721,7.33,77.708-25,106,0.67,3,1.33,6,2,9l88,24q4.005,38,8,76v1l-182-4-50,7q-25.995-25.5-52-51c77.37-17.082,76.61-78.219,124-122q-2.505-13.5-5-27c0.33-.333.67-0.667,1-1,45.66,26.587,28.57,4.073,46-26Q1348.005,502.5,1364,492Z"/>
  <path id="hajdow_zadebie" data-name="Hajdów - Zadębie" d="M1463,737q-5.505-44.5-11-89l-80-21v-1c41.72-48.956,27.46-74.955,10-136,29.41,0.612,20.88-8.494,35-18q17.505-5,35-10-1.005-12-2-24c19.64-59.454,73.48-53.282,105-93,10.49,12.187-3.85,21.246-6,36,22.71,20.413,17.94,45.9,34,60q30.99,19,62,38l33,4c22.1,8.759,28.11,47.649,49,54l36-1c16.96,3.941,22.95,21.7,42,22h3l43-9q27.99,11,56,22c3.79,26.442-14.14,65.057-24,87-14.58.389-23.2-8.191-38-3q-2.505,24.5-5,49l-84-14c-11.33,18.435,27.99,88.513,23,120l-6-1c-5.76-21.675-141-63.319-174-69Z"/>
  <path id="bronowice" data-name="Bronowice" d="M1151,694q31.5,30.5,63,61,27.99-4.5,56-9l129,2q-37.5,70.493-75,141-108.495-60.995-217-122c0.5-13.83-1.74-20.835-6-29Q1125.99,716,1151,694Z"/>
  <path id="felin" data-name="Felin" d="M1414,749l191,6c62.36,13.494,121.3,46.2,174,57,5.27,25.578-46.97,228.8-60,246-16.12,2.46-21.01-3.57-28-13l-54,21c-76.1-73.506-212.02-108.428-301-171Q1375,822.007,1414,749Z"/>
  <path id="kosminek" data-name="Kośminek" d="M1100,780q198.975,109.49,398,219,65.49,34.5,131,69c-58.4,44.37-167.8,28.99-236,63q-1.005,7.005-2,14-57,2.505-114,5c-22.58-52.11-67.22-82.49-94-130,40.34-44.882-56.69-116.3-68-139C1103.11,857.143,1100.87,809.468,1100,780Z"/>
  <path id="dziesiata" data-name="Dziesiąta" d="M1090,830c11.92,26.544,7.25,52.46,22,73q27.99,28,56,56,3.495,28,7,56,12,13.995,24,28,1.5,15.495,3,31c15.01,29.18,61.3,51.25,64,91-37.88,29.84-26.33,36.36-36,89-86.37,1.1-205.44,12.08-221-55q39-36.495,78-73c-1.74-36.9-123.937-140.44-128-196Q1024.49,880,1090,830Z"/>
  <path id="glusk" data-name="Głusk" d="M1392,1157q1.995,52.5,4,105c54.92,9,21.38,10.04,34,54,4.04,14.06,23.63,17.83,29,36,16.16,54.67-11.71,134.66-38,158-16.71,14.84-91.81,30.39-120,11-12.56-8.64-11.63-40.54-28-45q-10.005,5.505-20,11c-8.35-50.88-3.98-52.52-25-86q16.5-30.495,33-61c7.88-36.31-16.07-45.16-21-65q4.005-20.505,8-41-1.005-16.005-2-32C1263.46,1157.6,1327.66,1156.35,1392,1157Z"/>
  <path id="wrotkow" data-name="Wrotków" d="M1047,1314q-121.488-4.995-243-10c1.737-39.22,21.169-55.65,30-87,10.673-37.88-6.124-67.05,0-110,3.754-26.32,21.126-38.48,25-60q-6-8.505-12-17c-4.469-17,11.3-26.66-1-41,26.443-19.767,72.847-33.989,101-48,32.1,63.93,74.35,132.59,125,179q-32.49,31.5-65,63c-34.838,34.49,25.64,47.89,38,78Q1046.005,1287.49,1047,1314Z"/>
  <path id="abramowice" data-name="Abramowice" d="M1058,1264q84.99,1.005,170,2c-3.55,26.58,17.78,31.49,21,54v2c2.66,32.73-26.3,43.91-33,67-7.95,27.37,17.34,35.03,22,53,10.76,41.5-1.08,85.46-15,117q-36.99.495-74,1-1.5-8.505-3-17-110.985,1.995-222,4c0.279,39.73,5.048,341.34-3,348-19.98,16.53-109.37-8.81-138,3q-1.5,10.005-3,20c-46.029,9.7-136.614,2.15-186-4q-0.5-1.5-1-3c40.292-37.92,86.8-76.52,121-120,85.111-108.21,150.294-309.72,178-472q83.491,3.495,167,7l1-1Q1058.995,1294.505,1058,1264Z"/>
  <path id="zemborzyce" data-name="Zemborzyce" d="M830,994l9,8c-8.212,20.36,1.158,35.21,4,49-18.361,17.25-32.766,72.73-23,112,2.323,9.34,8.8,13.89,6,28-8.458,42.63-43.952,71.66-34,124l86,3c-30.077,161.06-80.4,323.72-159,441-29.987,44.74-80.137,73.95-108,119-13.614,22.01-36.777,45.06-47,69-7.846,18.37-3.582,43.47-18,55-1,.67-2,1.33-3,2-0.667.67-1.333,1.33-2,2-33.609,13.9-114.464,9.15-131-13q-3-16.005-6-32c-21.976-23.34-68.944-10.13-81-45-11.3-32.68,24.168-57.84,12-96-6.718-21.07-56.485-33.93-55-55q59.495-67.5,119-135l-12-15c38.757-33.06,86.653-74.4,112-120h4q12.5,10.005,25,20l90-97L379,1194q1-6,2-12c23.577-14.53,69.582-14.83,85-37q2-13.995,4-28,20-16.005,40-32v-55c36.413-.37,60.388-15.4,90-21C674.39,994.943,772.505,1022.01,830,994Z"/>
  <path id="czuby_poludniowe" data-name="Czuby Południowe" d="M619,912l85,11,86,22c4.907,20,8.439,30.917,24,40v1c-53.031,21.46-139.04.292-205,9q-41,10-82,20,3-28,6-56Z"/>
</svg>
